<svg width="50" height="50" viewBox="0 0 50 50" fill="none" xmlns="http://www.w3.org/2000/svg">
<path d="M49.4133 15.6186C50.8648 19.093 49.533 22.8572 46.4113 25.0619C49.4394 27.2785 50.7127 30.9878 49.2814 34.4135C47.7411 38.1001 43.5592 40.2833 39.2756 39.932C39.9541 42.9519 38.7075 46.187 35.7336 48.2113C31.9885 50.7603 26.7683 50.5292 23.339 47.8725L4.61248 38.7162L5.69354 38.1869C2.19021 34.9017 0.000245869 30.2328 0.000177653 25.0512C0.000177653 20.1031 1.99622 15.6213 5.22674 12.3666L3.87518 11.7064L23.6711 2.02675C23.7791 1.94639 23.8891 1.86639 24.0021 1.78945C28.2187 -1.08032 34.3074 -0.428797 37.6017 3.24453C39.4103 5.26123 39.9981 7.76892 39.465 10.0961C43.7285 9.769 47.8799 11.9484 49.4133 15.6186Z" fill="#CDCACA"/>
<ellipse cx="4.93509" cy="6.33291" rx="4.93509" ry="6.33291" transform="matrix(0.667653 0.744472 -0.826681 0.562671 29.5723 2.54297)" fill="#7D7C80"/>
<ellipse cx="4.74824" cy="6.54935" rx="4.74824" ry="6.54935" transform="matrix(0.385499 0.922708 -0.953228 0.302253 41.7373 12.7422)" fill="#7D7C80"/>
<ellipse cx="4.74824" cy="6.54935" rx="4.74824" ry="6.54935" transform="matrix(-0.385499 0.922708 -0.953228 -0.302253 45.3994 28.5977)" fill="#7D7C80"/>
<ellipse cx="4.93509" cy="6.33291" rx="4.93509" ry="6.33291" transform="matrix(-0.667654 0.744472 -0.826681 -0.562671 36.0752 40.2148)" fill="#7D7C80"/>
<path d="M28.4678 25.0487C28.4678 26.7323 27.7547 28.2804 26.5615 29.5096L26.6221 29.578L26.1807 29.8778C25.6241 30.3792 24.9822 30.8165 24.2734 31.1766L18.0078 35.4413C17.9698 35.4754 17.9323 35.511 17.8936 35.5448C14.3982 38.5896 9.16967 38.9713 6.21484 36.3973C4.72268 35.0974 4.09688 33.2923 4.29199 31.4315V18.9217C4.09683 17.0609 4.72264 15.2559 6.21484 13.9559C8.93953 11.5822 13.5971 11.7227 17.0469 14.1464L17.0537 14.1385L23.668 18.6385C24.8245 19.1288 25.8318 19.8171 26.6211 20.6483L26.7666 20.7489L26.7412 20.7782C27.8262 21.9752 28.4677 23.4511 28.4678 25.0487Z" fill="#7D7C80"/>
</svg>
